<?xml version="1.0" encoding="utf-8"?>
<!-- Generator: Adobe Illustrator 26.0.0, SVG Export Plug-In . SVG Version: 6.00 Build 0)  -->
<svg version="1.1" id="레이어_1" xmlns="http://www.w3.org/2000/svg" xmlns:xlink="http://www.w3.org/1999/xlink" x="0px"
	 y="0px" viewBox="0 0 489.28 98.89" style="enable-background:new 0 0 489.28 98.89;" xml:space="preserve">
<style type="text/css">
	.st0{fill:#FFFFFF;}
</style>
<g>
	<path class="st0" d="M61.27,81.94c0.16,2.03-0.71,2.79-2.42,2.98c-11.43,1.37-25.71,0.98-38.67-0.7c-4.38-0.6-6.47-3.04-6.08-7.3
		l6.06-62.37c0.22-1.89,1.2-2.73,3.15-2.51l12.29,1.41c1.95,0.22,2.82,1.28,2.51,3.16l-7,54.23c8.67,1.09,18.23,1.32,26.41,0.73
		c2.09-0.14,3.09,0.64,3.19,2.38L61.27,81.94z"/>
	<path class="st0" d="M123.38,74.11c0.67,1.92,0.03,2.97-1.57,3.58c-15.3,5.44-28.72,8.02-45.56,10.22
		c-4.39,0.53-7.03-1.31-7.73-5.53l-9.45-58.1c-0.73-4.41,1.88-6.99,5.87-7.56l45.57-6.67c2.04-0.29,3.59,0.83,3.87,2.81l1.1,7.72
		c0.28,1.98-0.89,3.49-2.93,3.78L77.8,29.79l1.99,14.03l30.84-4.96c2.04-0.29,3.59,0.83,3.87,2.81l1.1,7.72
		c0.28,1.98-0.89,3.49-2.93,3.78l-30.88,4.68l2.13,14.29c12.57-1.59,22.98-3.75,33.42-7.06c1.99-0.67,2.94-0.23,3.48,1.43
		L123.38,74.11z"/>
	<path class="st0" d="M201.85,31.1c-0.86,1.83-2.77,2.22-4.45,1.21c-4.95-2.95-10.86-5.22-18.1-5.8
		c-6.85-0.54-11.59,1.59-12.54,6.47c-0.74,3.66,1.59,6.16,5.27,8.04c4.52,2.33,10.14,4.39,15.87,6.45
		c11.74,4.25,17.61,11,16.16,21.28c-1.69,11.78-13.87,18.57-30.77,16.8c-10.26-1.05-19.73-5.28-26.79-12.05
		c-1.27-1.17-1.25-2.41-0.25-3.65l4.78-5.76c1.11-1.33,2.72-1.66,4.19-0.47c5.02,4.29,10.75,7.4,19.23,8.48
		c7.89,1.02,12.55-1.31,12.99-4.99c0.48-4.06-2.69-6.08-7.35-7.85c-6.57-2.52-12.61-4.33-18.69-7.95
		c-6.82-4.08-12.25-10.31-11.27-19.77c1.35-13.43,13.22-21.11,30.52-19.49c9.78,0.91,17.23,3.52,23.1,7.22
		c1.77,1.12,2.73,2.45,1.88,4.19L201.85,31.1z"/>
	<path class="st0" d="M223.69,73.2c-3.58-3.46-5.37-8.29-5.37-14.48l30.69-8.17c-0.52-1.49-1.67-3.09-3.45-4.83
		c-2.3-2.23-5.25-3.34-8.82-3.34c-3.58,0-6.14,0.74-7.67,2.23c-1.79,1.73-2.68,3.71-2.68,5.94h-8.44c1.02-4.46,2.69-7.8,4.99-10.03
		c3.32-3.21,7.92-4.83,13.81-4.83c6.14,0,11.13,1.86,14.96,5.57c2.04,1.98,3.58,4.46,4.6,7.43l7.29-2.23
		c0.25,4.96,1.53,7.43,3.84,7.43c1.79,0,2.81-1.24,3.07-3.71h7.29c-2.05,6.44-5.37,9.66-9.97,9.66s-7.29-1.98-8.06-5.94l-2.3,0.74
		c0.25,8.42-1.79,14.73-6.14,18.94c-3.58,3.47-8.19,5.2-13.81,5.2C232.13,78.77,227.53,76.91,223.69,73.2z M241.34,31.23l-17.26-13
		h12.28l13.04,13H241.34z M245.56,69.48c3.32-3.21,4.73-7.55,4.22-13l-23.4,6.31c0.51,2.73,1.79,5.08,3.84,7.06
		c1.79,1.73,4.35,2.6,7.67,2.6C240.95,72.45,243.51,71.47,245.56,69.48z"/>
	<path class="st0" d="M335.13,84.46c-1.96,0.67-3.54,0.19-4.32-1.71c-2.16-4.94-4.42-10.27-6.68-15.88l-23.96-0.09
		c-2.26,5.61-4.42,11.03-6.58,16.07c-0.79,1.9-2.36,2.47-4.32,1.71l-11.1-2.85c-1.96-0.67-2.75-2-1.77-4.28
		c8.45-18.73,17.78-41.93,26.22-61.04c0.88-2,1.08-3.14,3.14-3.14h10.12h0.39h0.49c2.06,0,2.46,1.14,3.14,3.14
		c8.64,19.11,16.79,38.98,26.22,61.23c0.98,2.28,0.2,3.61-1.77,4.28L335.13,84.46z M311.76,36.45c-1.96,5.32-3.93,10.65-5.99,15.88
		h12.47L311.76,36.45z"/>
	<path class="st0" d="M410.75,67.44c1.87,1.33,1.57,2.85,0.59,4.37c-6.09,9.13-15.62,13.6-27.89,13.6
		c-21.11,0-35.84-14.83-35.84-36.32c0-21.49,14.73-37.27,34.86-37.27c13.75,0,23.37,5.61,28.87,13.41c0.88,1.24,0.88,2.76-0.39,3.9
		l-9.03,6.85c-1.28,1.05-3.14,1.24-4.32-0.29c-2.95-3.71-7.27-6.56-14.44-6.56c-9.82,0-17.87,8.37-17.87,20.92
		c0,12.27,8.35,20.44,18.86,20.44c6.78,0,11.59-2.38,15.42-6.75c1.38-1.62,2.85-1.71,4.62-0.57L410.75,67.44z"/>
	<path class="st0" d="M476.75,78.38c0.39,2-0.39,2.95-2.06,3.33c-15.91,3.23-29.56,3.9-46.55,3.71c-4.42-0.09-6.78-2.28-6.87-6.56
		L420.09,20c-0.1-4.47,2.85-6.66,6.88-6.66l46.06-0.19c2.06,0,3.44,1.33,3.44,3.33v7.8c0,2-1.38,3.33-3.44,3.33l-35.16,0.48v14.17
		l31.23-0.57c2.06,0,3.44,1.33,3.44,3.33v7.8c0,2-1.38,3.33-3.44,3.33l-31.23,0.29l0.1,14.45c12.67,0.19,23.27-0.48,34.08-2.28
		c2.06-0.38,2.95,0.19,3.24,1.9L476.75,78.38z"/>
</g>
</svg>
